# xmcd CD database file
#
# Track frame offsets:
#	183
#	29248
#	61133
#	86183
#	114808
#	151618
#	179503
#	187108
#	216048
#	234238
#	263420
#	291418
#
# Disc length: 4303 seconds
#
# Revision: 9
# Processed by: cddbd v1.5.2PL0 Copyright (c) Steve Scherf et al.
# Submitted via: CDex 1.51
#
DISCID=a310cd0c
DTITLE=Walter Trout Band - Live (No More Fish Jokes)
DYEAR=1991
DGENRE=Blues/Rock
TTITLE0=Dust My Broom
TTITLE1=If You Just Try
TTITLE2=False Alarm
TTITLE3=Life In The Jungle
TTITLE4=Girl From The North Country
TTITLE5=Victor The Cajun
TTITLE6=Earrings On The Table
TTITLE7=Motivation Of Love
TTITLE8=Playing With Gloves On
TTITLE9=The Love That We Once Knew
TTITLE10=Prisoner Of A Dream
TTITLE11=Going Down
EXTD=YEAR: 1991
EXTT0=
EXTT1=
EXTT2=
EXTT3=
EXTT4=
EXTT5=
EXTT6=
EXTT7=
EXTT8=
EXTT9=
EXTT10=
EXTT11=
PLAYORDER=
